<?xml version="1.0" encoding="UTF-8"?>
<svg width="193px" height="82px" viewBox="0 0 193 82" version="1.1" xmlns="http://www.w3.org/2000/svg" xmlns:xlink="http://www.w3.org/1999/xlink">
    <!-- Generator: Sketch 42 (36781) - http://www.bohemiancoding.com/sketch -->
    <title>LOGO Copy</title>
    <desc>Created with Sketch.</desc>
    <defs></defs>
    <g id="Page-1" stroke="none" stroke-width="1" fill="none" fill-rule="evenodd">
        <g id="LOGO-Copy" fill="#00B4FF">
            <g id="7522_LogoVectorEPS" transform="translate(6.000000, 4.000000)">
                <path d="M58.627,37.505 C58.754,55.868 72.729,68.918 89.913,69.021 C108.465,69.132 121.651,54.759 121.701,37.604 C121.75,20.957 109.253,6.071 90.192,6.037 C72.184,6.005 58.766,19.633 58.627,37.505 Z M127.3,37.502 C127.307,56.498 112.709,74.041 90.294,74.718 C68.036,74.147 53.124,56.829 53.098,37.564 C53.07,17.122 69.682,0.484 90.111,0.455 C110.634,0.426 127.238,16.967 127.3,37.502 L127.3,37.502 Z" id="Fill-4"></path>
                <path d="M128.982,19.526 C127.632,16.925 126.197,14.45 124.313,11.993 C143.149,8.98 161.768,6.003 180.56,2.997 C179.654,8.1 178.154,12.848 176.283,17.365 C175.985,17.636 175.737,17.614 175.501,17.623 C172.547,17.731 169.594,17.825 166.641,17.944 C160.457,18.191 154.273,18.447 148.09,18.708 C144.899,18.842 141.709,18.99 138.52,19.139 C135.889,19.262 133.258,19.4 130.627,19.522 C130.111,19.546 129.594,19.526 128.982,19.526" id="Fill-5"></path>
                <path d="M56.066,11.95 C54.273,14.45 52.723,16.857 51.521,19.475 C50.618,19.702 49.754,19.43 48.886,19.402 C45.813,19.3 42.739,19.218 39.669,19.075 C35.641,18.887 31.612,18.722 27.583,18.567 C23.993,18.428 20.407,18.221 16.815,18.11 C12.945,17.989 9.078,17.794 5.21,17.632 C4.97,17.622 4.729,17.622 4.516,17.485 C3.236,15.232 1.782,10.563 0.017,2.992 C18.674,5.974 37.262,8.945 56.066,11.95" id="Fill-6"></path>
                <path d="M173.349,23.291 C171.253,27.771 168.685,31.724 165.668,35.377 C154.564,34.069 143.562,32.773 132.469,31.466 C131.8,28.764 131.288,26.036 130.432,23.291 L173.349,23.291" id="Fill-7"></path>
                <path d="M14.899,35.386 C11.955,31.692 9.446,27.731 7.25,23.549 C8.176,23.323 48.681,23.289 49.896,23.512 C49.13,26.108 48.556,28.747 47.952,31.479 C36.972,32.777 26.017,34.072 14.899,35.386" id="Fill-8"></path>
                <path d="M161.982,39.837 C159.006,43.062 156.033,45.93 152.713,48.461 C145.99,46.632 139.306,44.813 132.621,42.994 C132.637,40.323 133.18,37.759 132.773,35.012 C142.469,36.614 152.082,38.202 161.982,39.837" id="Fill-9"></path>
                <path d="M47.55,35.054 C47.507,37.857 47.509,40.403 47.888,43.029 C41.201,44.848 34.598,46.645 27.904,48.466 C24.619,45.906 21.563,43.077 18.627,39.846 C28.329,38.239 37.855,36.66 47.55,35.054" id="Fill-10"></path>
                <path d="M130.047,52.776 C130.836,50.651 131.31,48.477 131.876,46.34 C132.861,46.335 143.896,49.719 148.66,51.488 C147.925,51.976 147.281,52.41 146.632,52.833 C144.595,54.161 142.5,55.393 140.333,56.498 C139.909,56.714 139.523,56.926 138.988,56.695 C136.103,55.448 133.199,54.24 130.303,53.015 C130.236,52.987 130.189,52.911 130.047,52.776" id="Fill-17"></path>
                <path d="M32.132,51.377 C37.576,49.653 42.955,47.95 48.406,46.224 C49.216,48.443 49.491,50.751 50.44,52.898 C49.259,53.57 48.047,53.96 46.887,54.462 C45.206,55.19 43.507,55.877 41.833,56.618 C41.306,56.852 40.876,56.827 40.368,56.558 C37.583,55.081 34.885,53.464 32.276,51.697 C32.224,51.661 32.214,51.564 32.132,51.377" id="Fill-19"></path>
                <path d="M128.946,55.516 C131.188,56.551 133.347,57.547 135.657,58.614 C133.151,60.125 130.43,60.75 127.833,61.8 C127.177,61.586 126.566,61.254 126.04,60.701 C127.073,59.022 128.044,57.341 128.946,55.516" id="Fill-26"></path>
                <path d="M44.917,58.65 C47.196,57.592 49.271,56.63 51.43,55.629 C52.47,57.36 53.338,59.172 54.54,60.898 C53.974,61.216 53.465,61.502 52.927,61.805 C50.266,60.919 47.6,60.067 44.917,58.65" id="Fill-27"></path>
                <path d="M86.183,27.678 C85.038,23.489 80.185,20.742 75.745,22.129 C71.114,23.575 68.501,28.241 69.889,32.778 C71.293,37.364 75.844,39.616 79.679,38.588 C79.469,33.578 81.642,29.945 86.183,27.678 Z M100.857,38.579 C104.814,39.649 109.522,37.291 110.829,32.603 C112.116,27.981 109.179,23.147 104.507,21.992 C99.677,20.797 95.234,24.247 94.538,27.737 C96.549,28.728 98.261,30.119 99.43,32.103 C100.596,34.082 101.068,36.221 100.857,38.579 Z M98.926,37.474 C98.903,32.699 95.093,28.916 90.306,28.916 C85.496,28.916 81.575,32.8 81.637,37.574 C81.694,42.057 85.146,46.14 90.283,46.154 C95.484,46.168 99.041,41.855 98.926,37.474 Z M111.926,51.49 C110.936,43.376 110.33,41.163 108.432,38.889 C106.02,40.234 103.424,40.996 100.562,40.426 C99.959,42.149 99.131,43.637 97.893,44.957 C100.36,50.181 101.016,55.679 100.185,61.531 C93.685,64.212 87.136,63.933 80.547,61.77 C79.883,58.837 79.851,55.993 80.306,53.125 C80.752,50.316 81.591,47.624 82.673,44.922 C81.481,43.656 80.637,42.18 80.063,40.469 C77.254,40.76 74.606,40.403 72.182,38.721 C69.522,42.715 68.92,47.153 68.905,51.732 C68.313,51.741 68.177,51.301 67.957,51.001 C66.735,49.335 66.084,47.41 65.473,45.466 C64.642,42.821 64.135,40.108 64.161,37.346 C64.21,32.288 65.559,27.577 68.385,23.344 C72.779,16.76 78.933,12.841 86.745,11.758 C94.201,10.724 100.909,12.713 106.739,17.505 C111.723,21.601 114.783,26.867 115.827,33.214 C116.877,39.59 115.772,45.606 112.281,51.115 C112.22,51.211 112.123,51.285 111.926,51.49 L111.926,51.49 Z" id="Fill-35"></path>
            </g>
        </g>
    </g>
</svg>